<?xml version="1.0" encoding="utf-8"?>
<!DOCTYPE svg PUBLIC "-//W3C//DTD SVG 1.1//EN" "http://www.w3.org/Graphics/SVG/1.1/DTD/svg11.dtd">
<svg version="1.1" id="Layer_1" xmlns="http://www.w3.org/2000/svg" xmlns:xlink="http://www.w3.org/1999/xlink" x="0px" y="0px"
	 width="530px" height="560px" viewBox="0 0 530 560" enable-background="new 0 0 530 560" xml:space="preserve">
<g>
	<g>
		<path fill="#fff" d="M147.59,519.691c-15.114,14.491-32.691,21.748-52.714,21.748c-21.476,0-39.618-7.406-54.41-22.213
			c-14.81-14.799-22.213-32.559-22.213-53.278c0-20.504,7.403-38.217,22.213-53.13c14.792-14.907,32.934-22.357,54.41-22.357
			c19.962,0,38.25,7.588,54.861,22.773l-12.911,11.49c-13.545-11.972-27.529-17.954-41.95-17.954
			c-15.732,0-29.321,5.73-40.779,17.175c-11.455,11.451-17.179,25.462-17.179,42.003c0,16.685,5.724,30.731,17.179,42.155
			c11.458,11.429,25.046,17.129,40.779,17.129c13.465,0,24.877-3.765,34.248-11.275v-44.932h18.466V519.691z"/>
		<path fill="#fff" d="M270.155,539.799h-18.562v-16.411c-7.323,12.572-18.47,18.872-33.439,18.872
			c-14.839,0-27.405-5.145-37.699-15.443c-10.29-10.284-15.43-22.435-15.43-36.459c0-14.156,5.14-26.36,15.43-36.607
			c10.294-10.26,22.859-15.39,37.699-15.39c14.969,0,26.116,6.225,33.439,18.668v-10.979h18.562V539.799z M251.593,497.743v-14.968
			c-1.307-6.77-4.41-12.627-9.341-17.551c-6.905-6.968-14.938-10.459-24.098-10.459c-9.234,0-17.235,3.425-24.004,10.264
			c-6.772,6.832-10.15,15.284-10.15,25.328c0,9.991,3.378,18.361,10.15,25.137c6.77,6.762,14.771,10.153,24.004,10.153
			c9.159,0,17.193-3.456,24.098-10.366C247.183,510.36,250.286,504.51,251.593,497.743z"/>
		<path fill="#fff" d="M332.406,460.002c-8.462,1.297-15.038,4.672-19.69,10.101c-4.653,5.449-6.975,12.262-6.975,20.458v49.238
			h-18.569v-93.75h18.569v13.336c2.74-7.313,8.614-12.41,17.634-15.283L332.406,460.002z"/>
		<path fill="#fff" d="M400.618,420.004c20.779,19.686,32.685,31.001,35.698,33.944c9.976,10.121,14.966,22.253,14.966,36.409
			c0,14.024-5.104,26.175-15.292,36.459c-10.193,10.299-22.763,15.443-37.728,15.443c-14.847,0-27.41-5.145-37.703-15.443
			c-10.293-10.284-15.43-22.435-15.43-36.459c0-14.156,5.137-26.36,15.43-36.607c10.292-10.26,21.688-15.632,34.205-16.106
			l-6.159-5.642l-4.917,4.922l-19.585-5.027l11.979-12.003l-23.566-23.385h24.402l11.29,11.286l6.245-6.268l18.151,6.479
			L400.618,420.004z M364.103,490.357c0,9.991,3.378,18.361,10.147,25.137c6.77,6.762,14.78,10.153,24.012,10.153
			c9.158,0,17.122-3.392,23.938-10.153c6.802-6.775,10.207-15.146,10.207-25.137c0-10.044-3.405-18.496-10.207-25.328
			c-6.816-6.839-14.78-10.264-23.938-10.264c-9.232,0-17.242,3.425-24.012,10.264C367.481,471.861,364.103,480.313,364.103,490.357z
			"/>
		<path fill="#fff" d="M511.78,460.002c-8.469,1.297-15.025,4.672-19.671,10.101c-4.666,5.449-6.975,12.262-6.975,20.458v49.238
			h-18.576v-93.75h18.576v13.336c2.721-7.313,8.613-12.41,17.64-15.283L511.78,460.002z"/>
	</g>
	<g>
		<linearGradient id="SVGID_1_" gradientUnits="userSpaceOnUse" x1="111.2559" y1="186.0552" x2="418.7812" y2="186.0552">
			<stop  offset="0" style="stop-color:#0064B4"/>
			<stop  offset="0.5" style="stop-color:#009CE1"/>
			<stop  offset="1" style="stop-color:#005DAF"/>
		</linearGradient>
		<path fill="url(#SVGID_1_)" d="M389.175,174.983c0,0.007-0.026,0.007-0.04,0.02c-0.225,0.049-0.657,0.149-1.288,0.286
			c0,0-0.006,0.01-0.02,0.01c-4.201,0.952-16.936,3.707-33.973,6.119c-33.86,4.798-84.729,8.256-119.27-6.467
			c0,0,32.748,29.781,105.181,39.973c-4.958,10.479-10.267,20.447-15.915,29.844c-16.612,27.688-36.342,50.557-58.811,68.241
			c-22.551-17.749-42.328-40.711-58.963-68.477c-19.631-32.711-35.127-72.146-46.058-117.259
			c-4.974-20.506-8.521-40.313-11.046-58.276c35.691,10.652,74.978,16.171,116.061,16.171c41.097,0,80.366-5.512,116.038-16.164
			c-2.542,18.091-6.126,38.071-11.156,58.77c-2.19,9.056-4.613,17.873-7.168,26.467c0.638-0.103,1.242-0.212,1.859-0.312
			c4.593-0.83,17.381-3.388,34.45-8.701c0.843-3.229,1.686-6.477,2.469-9.756c11.037-45.344,15.483-87.451,17.255-116.16
			c-42.826,21.579-96.556,33.315-153.746,33.315c-57.214,0-110.917-11.737-153.779-33.322c1.768,28.558,6.175,70.415,17.142,115.64
			c11.7,48.291,28.448,90.805,49.758,126.311c23.467,39.152,52.685,69.926,86.88,91.549c34.108-21.549,63.27-52.237,86.717-91.286
			c8.116-13.502,15.562-28.07,22.332-43.543c0.04,0,0.08,0,0.139,0.007l-0.073-0.169c2.854-6.57,5.628-13.27,8.25-20.172h-17.594
			l-0.543-1.181l25.06-21.509C389.322,174.95,389.262,174.974,389.175,174.983z"/>
	</g>
</g>
</svg>
